<?xml version="1.0" encoding="UTF-8"?>
<svg id="Layer_1" data-name="Layer 1" xmlns="http://www.w3.org/2000/svg" viewBox="0 0 78 84.01">
  <defs>
    <style>
      .cls-1 {
        fill: #000;
        stroke-width: 0px;
      }
    </style>
  </defs>
  <path class="cls-1" d="M72.5,64h-33c-.83,0-1.5-.67-1.5-1.5s.67-1.5,1.5-1.5h33c.83,0,1.5.67,1.5,1.5s-.67,1.5-1.5,1.5Z"/>
  <path class="cls-1" d="M75,78.01h-6l3.85-9.23c.26-.62.19-1.32-.18-1.88s-1-.89-1.66-.89h-30c-.64,0-1.25.31-1.62.83-.38.52-.48,1.19-.28,1.8l3.12,9.37h-9.87c.83-1.95,1.65-4.71,1.65-8,0-5.76-3.44-9.27-3.59-9.41-.37-.38-.88-.59-1.41-.59H10c-.53,0-1.04.21-1.41.59-.15.15-3.59,3.65-3.59,9.41,0,3.29.81,6.05,1.65,8h-3.65c-1.66,0-3,1.34-3,3s1.34,3,3,3h72c1.66,0,3-1.34,3-3s-1.34-3-3-3ZM43.78,70.01h24.22l-3.33,8h-18.22l-2.67-8ZM9,70.01c0-2.94,1.23-5.04,1.93-6h17.13c.71.96,1.93,3.06,1.93,6,0,3.76-1.35,6.66-2.1,8H11.1c-.76-1.34-2.1-4.24-2.1-8Z"/>
  <path class="cls-1" d="M30.5,58H8.5c-.83,0-1.5-.67-1.5-1.5s.67-1.5,1.5-1.5h22c.83,0,1.5.67,1.5,1.5s-.67,1.5-1.5,1.5Z"/>
  <g>
    <path class="cls-1" d="M75,44h-2v-19c0-3.61-2.03-6.76-5-8.36V1.5c0-.83-.67-1.5-1.5-1.5h-6c-.83,0-1.5.67-1.5,1.5v15.14c-2.97,1.61-5,4.75-5,8.36v19h-3V15.01c0-1.1-.9-2-2-2h-16c-1.1,0-2,.9-2,2v28.99h-6.07c1.91-2.12,3.07-4.92,3.07-8,0-6.63-5.37-12-12-12s-12,5.37-12,12c0,3.08,1.17,5.88,3.07,8H3c-1.66,0-3,1.34-3,3s1.34,3,3,3h72c1.66,0,3-1.34,3-3s-1.34-3-3-3ZM16,28c4.41,0,8,3.59,8,8s-3.59,8-8,8-8-3.59-8-8,3.59-8,8-8ZM62,3h3v12.63c-.49-.08-.99-.13-1.5-.13s-1.01.05-1.5.13V3ZM58,25c0-3.03,2.47-5.5,5.5-5.5s5.5,2.47,5.5,5.5v19h-11v-19ZM46.34,17.01l-4.95,5.3-4.98-5.3h9.93ZM35,19.89l5.3,5.64c.28.3.68.47,1.09.47h0c.42,0,.81-.17,1.09-.48l4.51-4.83v23.31h-12v-24.11Z"/>
    <path class="cls-1" d="M17,22c0-5.33-2.67-8-8-8,0,0,0,8,8,8Z"/>
  </g>
</svg>