<?xml version="1.0" encoding="UTF-8"?>
<svg id="Capa_1" data-name="Capa 1" xmlns="http://www.w3.org/2000/svg" viewBox="0 0 673.38 800">
  <defs>
    <style>
      .cls-1 {
        fill: #000;
        stroke-width: 0px;
      }
    </style>
  </defs>
  <path class="cls-1" d="M113.28,0C50.82.01,0,50.84,0,113.3v573.41c0,62.46,50.82,113.29,113.28,113.3h534.72c14.02,0,25.38-11.36,25.38-25.38V25.38c0-14.02-11.36-25.38-25.38-25.38H113.28ZM113.28,50.77h509.33v522.64H113.28c-23.1,0-44.59,6.97-62.51,18.88V113.3c0-34.47,28.05-62.52,62.52-62.53ZM622.62,749.23H113.29c-34.47,0-62.52-28.06-62.52-62.53s28.04-62.52,62.52-62.53h509.33v37.15H222.94c-14.02,0-25.38,11.36-25.38,25.38s11.36,25.38,25.38,25.38h399.68v37.15h0Z"/>
  <path class="cls-1" d="M235.18,356.18v96.11c0,14.02,11.36,25.38,25.38,25.38h152.24c14.02,0,25.38-11.36,25.38-25.38v-96.1c33.54-13.46,56.79-46.35,56.79-83.94,0-48.47-38.33-88.16-86.26-90.34-16.9-22.36-43.23-35.7-72.02-35.7s-55.13,13.34-72.03,35.7c-47.94,2.18-86.27,41.87-86.27,90.34,0,37.6,23.25,70.48,56.79,83.94ZM268.84,232.57c1.92,0,3.87.14,5.82.43,10.91,1.61,21.58-4,26.45-13.88,6.75-13.66,20.39-22.15,35.6-22.15s28.85,8.49,35.6,22.16c4.87,9.88,15.59,15.48,26.45,13.87,1.93-.28,3.88-.43,5.8-.43,21.87,0,39.67,17.8,39.67,39.67,0,19.92-14.88,36.83-34.6,39.33-12.68,1.61-22.19,12.4-22.19,25.18v90.15h-101.49v-88.47s0-.06,0-.09c.84-13.37-8.86-25.1-22.15-26.78-19.75-2.49-34.64-19.4-34.64-39.33,0-21.87,17.8-39.67,39.67-39.67Z"/>
</svg>