<?xml version="1.0" encoding="UTF-8"?>
<svg id="search" xmlns="http://www.w3.org/2000/svg" viewBox="0 0 88 88">
  <defs>
    <style>
      .cls-1 {
        fill: #000;
        stroke-width: 0px;
      }
    </style>
  </defs>
  <path class="cls-1" d="M86.83,81.17l-22.7-22.7c5.11-6.37,7.88-14.3,7.87-22.47C72,16.12,55.88,0,36,0S0,16.12,0,36s16.12,36,36,36c8.5,0,16.31-2.95,22.47-7.87l22.7,22.7c.75.75,1.77,1.17,2.83,1.17,2.21,0,4-1.79,4-4,0-1.06-.42-2.08-1.17-2.83ZM36,64c-15.46,0-28-12.54-28-28s12.54-28,28-28,28,12.54,28,28-12.53,28-28,28Z"/>
</svg>